<svg width="124" height="31" viewBox="0 0 124 31" fill="none" xmlns="http://www.w3.org/2000/svg">
<path d="M42.2824 22.3036L37.8281 7.20044H42.4004L44.4653 16.4924H44.5833L47.0316 7.20044H50.6304L53.0788 16.5219H53.1968L55.2617 7.20044H59.8339L55.3797 22.3036H51.4564L48.89 13.8671H48.772L46.2057 22.3036H42.2824Z" fill="#1F143F"/>
<path d="M63.0585 22.4806C62.3358 22.4806 61.6966 22.3626 61.1411 22.1266C60.5904 21.8857 60.1578 21.5219 59.8431 21.0352C59.5285 20.5485 59.3712 19.929 59.3712 19.1768C59.3712 18.5573 59.4769 18.0288 59.6883 17.5912C59.8997 17.1488 60.1947 16.7874 60.5732 16.5072C60.9518 16.2269 61.3918 16.0131 61.8933 15.8656C62.3997 15.7181 62.9454 15.6222 63.5304 15.578C64.1647 15.5288 64.6735 15.4698 65.057 15.401C65.4454 15.3272 65.7256 15.2265 65.8977 15.0986C66.0698 14.9659 66.1558 14.7914 66.1558 14.575V14.5455C66.1558 14.2506 66.0427 14.0244 65.8166 13.8671C65.5904 13.7097 65.3003 13.6311 64.9464 13.6311C64.558 13.6311 64.2409 13.7171 63.995 13.8892C63.7541 14.0564 63.6091 14.3145 63.5599 14.6635H59.8136C59.8628 13.9752 60.0816 13.341 60.47 12.7609C60.8633 12.1758 61.4361 11.7088 62.1883 11.3597C62.9405 11.0057 63.8795 10.8287 65.0054 10.8287C65.8166 10.8287 66.5442 10.9246 67.1882 11.1163C67.8323 11.3032 68.3805 11.5662 68.8328 11.9054C69.2851 12.2397 69.6292 12.6331 69.8652 13.0854C70.1061 13.5328 70.2266 14.0195 70.2266 14.5455V22.3036H66.4213V20.7107H66.3328C66.1066 21.1335 65.8313 21.4752 65.5068 21.7358C65.1873 21.9963 64.821 22.1856 64.408 22.3036C64 22.4216 63.5501 22.4806 63.0585 22.4806ZM64.3859 19.9142C64.6956 19.9142 64.9857 19.8503 65.2561 19.7225C65.5314 19.5947 65.7551 19.4103 65.9272 19.1694C66.0993 18.9285 66.1853 18.636 66.1853 18.2918V17.3479C66.0771 17.3921 65.9616 17.4339 65.8387 17.4733C65.7207 17.5126 65.5929 17.5495 65.4552 17.5839C65.3225 17.6183 65.1799 17.6502 65.0275 17.6797C64.88 17.7092 64.7251 17.7363 64.5629 17.7609C64.2482 17.81 63.9901 17.8911 63.7885 18.0042C63.5919 18.1124 63.4444 18.2476 63.3461 18.4098C63.2527 18.5672 63.206 18.7441 63.206 18.9408C63.206 19.2554 63.3166 19.4963 63.5378 19.6635C63.7591 19.8307 64.0417 19.9142 64.3859 19.9142Z" fill="#1F143F"/>
<path d="M83.1819 10.9762L79.3766 22.3036H74.6569L70.8516 10.9762H75.1288L76.9577 18.4688H77.0757L78.9046 10.9762H83.1819Z" fill="#1F143F"/>
<path d="M89.4227 22.5101C88.2132 22.5101 87.1709 22.279 86.2958 21.8169C85.4256 21.3498 84.7545 20.6812 84.2826 19.811C83.8155 18.9359 83.582 17.8887 83.582 16.6694C83.582 15.4993 83.818 14.4767 84.2899 13.6016C84.7619 12.7265 85.4281 12.0455 86.2884 11.5588C87.1488 11.0721 88.1641 10.8287 89.3342 10.8287C90.1896 10.8287 90.9639 10.9615 91.6572 11.227C92.3504 11.4925 92.9428 11.8784 93.4344 12.3848C93.9261 12.8863 94.3046 13.4959 94.5701 14.2137C94.8356 14.9315 94.9684 15.7402 94.9684 16.6399V17.5839H84.8504V15.342H91.2221C91.2171 15.0175 91.1336 14.7324 90.9713 14.4865C90.814 14.2358 90.6001 14.0416 90.3297 13.9039C90.0642 13.7614 89.7619 13.6901 89.4227 13.6901C89.0933 13.6901 88.7909 13.7614 88.5156 13.9039C88.2403 14.0416 88.019 14.2333 87.8519 14.4792C87.6896 14.725 87.6036 15.0126 87.5938 15.342V17.7609C87.5938 18.1247 87.67 18.4492 87.8224 18.7343C87.9748 19.0195 88.1936 19.2432 88.4787 19.4054C88.7639 19.5676 89.108 19.6488 89.5112 19.6488C89.7914 19.6488 90.047 19.6094 90.2781 19.5308C90.5141 19.4521 90.7157 19.339 90.8828 19.1915C91.05 19.0391 91.1729 18.8572 91.2516 18.6458H94.9684C94.8405 19.4324 94.5382 20.1158 94.0613 20.696C93.5844 21.2712 92.9526 21.7186 92.166 22.0381C91.3843 22.3528 90.4698 22.5101 89.4227 22.5101Z" fill="#1F143F"/>
<path d="M96.6295 22.3036V10.9762H100.582V13.1296H100.7C100.907 12.3332 101.234 11.7506 101.681 11.3818C102.133 11.0131 102.662 10.8287 103.267 10.8287C103.444 10.8287 103.618 10.8435 103.79 10.873C103.967 10.8976 104.137 10.9344 104.299 10.9836V14.457C104.097 14.3882 103.849 14.3366 103.554 14.3022C103.259 14.2678 103.006 14.2506 102.795 14.2506C102.396 14.2506 102.038 14.3415 101.718 14.5234C101.403 14.7004 101.155 14.9511 100.973 15.2756C100.791 15.5952 100.7 15.9713 100.7 16.4039V22.3036H96.6295Z" fill="#1F143F"/>
<path d="M105.634 22.3036V10.9762H109.705V22.3036H105.634ZM107.669 9.79629C107.119 9.79629 106.647 9.61439 106.253 9.25058C105.86 8.88676 105.663 8.4492 105.663 7.9379C105.663 7.42659 105.86 6.98903 106.253 6.62522C106.647 6.2614 107.119 6.0795 107.669 6.0795C108.225 6.0795 108.697 6.2614 109.085 6.62522C109.478 6.98903 109.675 7.42659 109.675 7.9379C109.675 8.4492 109.478 8.88676 109.085 9.25058C108.697 9.61439 108.225 9.79629 107.669 9.79629Z" fill="#1F143F"/>
<path d="M117.236 22.5101C116.007 22.5101 114.955 22.2667 114.08 21.78C113.205 21.2884 112.533 20.605 112.066 19.7299C111.599 18.8498 111.366 17.8297 111.366 16.6694C111.366 15.5092 111.599 14.4915 112.066 13.6163C112.533 12.7363 113.205 12.0529 114.08 11.5662C114.955 11.0746 116.007 10.8287 117.236 10.8287C118.465 10.8287 119.517 11.0746 120.392 11.5662C121.267 12.0529 121.938 12.7363 122.406 13.6163C122.873 14.4915 123.106 15.5092 123.106 16.6694C123.106 17.8297 122.873 18.8498 122.406 19.7299C121.938 20.605 121.267 21.2884 120.392 21.78C119.517 22.2667 118.465 22.5101 117.236 22.5101ZM117.265 19.5013C117.61 19.5013 117.907 19.3857 118.158 19.1547C118.409 18.9236 118.603 18.5942 118.74 18.1665C118.878 17.7387 118.947 17.2299 118.947 16.6399C118.947 16.045 118.878 15.5362 118.74 15.1134C118.603 14.6857 118.409 14.3563 118.158 14.1252C117.907 13.8941 117.61 13.7786 117.265 13.7786C116.902 13.7786 116.589 13.8941 116.329 14.1252C116.068 14.3563 115.869 14.6857 115.732 15.1134C115.594 15.5362 115.525 16.045 115.525 16.6399C115.525 17.2299 115.594 17.7387 115.732 18.1665C115.869 18.5942 116.068 18.9236 116.329 19.1547C116.589 19.3857 116.902 19.5013 117.265 19.5013Z" fill="#1F143F"/>
<path fill-rule="evenodd" clip-rule="evenodd" d="M6.42307 2.92254C5.34865 3.67381 4.37709 4.56205 3.53368 5.56194C6.98023 5.24196 11.3589 5.76445 16.4426 8.30629C21.8712 11.0205 26.2426 11.1123 29.2849 10.5255C29.0089 9.6897 28.6613 8.88644 28.2497 8.12282C24.7671 8.49014 20.3024 8.00394 15.0992 5.40242C11.7951 3.75037 8.88261 3.06984 6.42307 2.92254ZM26.2153 5.22719C23.4651 2.15437 19.4684 0.220558 15.0199 0.220558C13.7135 0.220558 12.446 0.38736 11.2377 0.700805C12.8742 1.14735 14.6128 1.80064 16.4426 2.71557C20.2521 4.62029 23.541 5.23358 26.2153 5.22719ZM29.9354 13.4592C26.26 14.1849 21.1847 14.0359 15.0992 10.9931C9.40996 8.14851 4.8818 8.18433 1.82785 8.86301C1.67022 8.898 1.51629 8.9348 1.36609 8.9731C0.966247 9.84268 0.647084 10.7571 0.418081 11.7067C0.662669 11.6413 0.915412 11.5792 1.17618 11.5212C4.88115 10.6979 10.116 10.7337 16.4426 13.897C22.1319 16.7416 26.66 16.7058 29.714 16.0271C29.8187 16.0039 29.9218 15.9799 30.0232 15.9551C30.0343 15.7183 30.0398 15.48 30.0398 15.2405C30.0398 14.6378 30.0044 14.0434 29.9354 13.4592ZM29.5328 19.1248C25.8931 19.7612 20.9655 19.5169 15.0992 16.5839C9.40996 13.7392 4.8818 13.775 1.82785 14.4537C1.14996 14.6043 0.540146 14.7878 0.00220042 14.9815C0.000733724 15.0676 0 15.154 0 15.2405C0 23.5358 6.72464 30.2604 15.0199 30.2604C21.9719 30.2604 27.8209 25.5373 29.5328 19.1248Z" fill="#7F57F1"/>
</svg>
