<svg width="109" height="28" viewBox="0 0 109 28" fill="none" xmlns="http://www.w3.org/2000/svg">
<path d="M18.3457 6.62286H20.0411V18.3835H25.1274V20.0732H18.3457V6.62286ZM30.4087 6.62286C31.4147 6.62286 32.398 6.92017 33.2345 7.47719C34.0709 8.03421 34.7229 8.82586 35.1078 9.75217C35.4928 10.6785 35.5935 11.6977 35.3972 12.681C35.201 13.6643 34.7166 14.5676 34.0052 15.2765C33.2939 15.9855 32.3876 16.4683 31.4009 16.6639C30.4144 16.8595 29.3917 16.7591 28.4623 16.3755C27.5328 15.9917 26.7385 15.342 26.1796 14.5084C25.6207 13.6747 25.3224 12.6947 25.3224 11.6921C25.3224 11.0264 25.454 10.3672 25.7096 9.75217C25.9651 9.13711 26.3398 8.57831 26.8122 8.10763C27.2844 7.63687 27.8451 7.26344 28.4623 7.00871C29.0793 6.75398 29.7408 6.62286 30.4087 6.62286ZM30.4087 15.0716C31.0793 15.0716 31.7349 14.8734 32.2926 14.502C32.8502 14.1306 33.2848 13.6028 33.5414 12.9853C33.7981 12.3678 33.8653 11.6884 33.7344 11.0327C33.6036 10.3772 33.2806 9.77507 32.8064 9.30245C32.3322 8.82983 31.728 8.50793 31.0703 8.37757C30.4124 8.24712 29.7307 8.31403 29.1111 8.56986C28.4915 8.8256 27.9619 9.25877 27.5893 9.81453C27.2167 10.3703 27.0178 11.0237 27.0178 11.6921C27.0223 12.5854 27.3815 13.4407 28.017 14.0708C28.6524 14.7009 29.5123 15.0547 30.4087 15.0547V15.0716ZM27.0178 18.4004H33.7996V20.0901H27.0178V18.4004ZM48.7194 20.0901H47.0239V18.8819C45.9305 19.6447 44.6286 20.0546 43.294 20.0563C42.1559 20.0639 41.0342 19.7859 40.0323 19.248C39.0303 18.71 38.1803 17.9294 37.5606 16.9781C36.9409 16.0268 36.5713 14.9353 36.486 13.8042C36.4006 12.6731 36.6023 11.5388 37.0723 10.5059C37.5424 9.47286 38.2657 8.57434 39.1757 7.8932C40.0857 7.21199 41.1531 6.76995 42.2794 6.6079C43.4059 6.44577 44.5551 6.56887 45.6212 6.96571C46.6874 7.36254 47.6362 8.02036 48.3803 8.87866L47.1341 9.98544C46.5682 9.35483 45.853 8.87545 45.0535 8.59098C44.2541 8.30643 43.396 8.22583 42.5573 8.35653C41.7186 8.48723 40.9261 8.8251 40.2519 9.3392C39.5778 9.85339 39.0435 10.5274 38.6978 11.3001C38.352 12.0728 38.2058 12.9193 38.2724 13.7628C38.3391 14.6062 38.6164 15.4196 39.0792 16.1288C39.5421 16.8379 40.1756 17.4205 40.9222 17.8231C41.6686 18.2258 42.5045 18.4358 43.3533 18.4342C44.0578 18.4356 44.7542 18.2854 45.3951 17.9937C46.0359 17.7021 46.606 17.2759 47.0663 16.7444H42.4886V15.0547H48.7363L48.7194 20.0901ZM54.9585 6.65665C55.9645 6.65665 56.9479 6.95396 57.7843 7.51099C58.6208 8.06801 59.2727 8.85965 59.6577 9.78597C60.0426 10.7123 60.1433 11.7315 59.9471 12.7148C59.7509 13.6981 59.2665 14.6014 58.5551 15.3103C57.8437 16.0193 56.9375 16.5021 55.9508 16.6977C54.9642 16.8933 53.9415 16.7929 53.0121 16.4093C52.0827 16.0255 51.2884 15.3758 50.7295 14.5422C50.1706 13.7085 49.8722 12.7285 49.8722 11.7259C49.8678 11.0559 49.9966 10.3917 50.2513 9.77169C50.5059 9.15164 50.8814 8.58803 51.3559 8.11355C51.8305 7.63898 52.3947 7.26293 53.016 7.00702C53.6373 6.75119 54.3033 6.62058 54.9755 6.62286L54.9585 6.65665ZM54.9585 15.1054C55.6292 15.1054 56.2848 14.9072 56.8424 14.5358C57.4001 14.1644 57.8347 13.6366 58.0913 13.0191C58.348 12.4016 58.4151 11.7222 58.2842 11.0665C58.1534 10.411 57.8304 9.80886 57.3562 9.33624C56.882 8.86362 56.2778 8.54173 55.6201 8.41136C54.9623 8.28092 54.2805 8.34783 53.6609 8.60366C53.0413 8.8594 52.5117 9.29256 52.1391 9.84832C51.7666 10.4041 51.5677 11.0575 51.5677 11.7259C51.5811 12.6163 51.9465 13.4655 52.5847 14.0888C53.2228 14.7121 54.082 15.0592 54.9755 15.0547L54.9585 15.1054ZM51.5677 18.4342H58.3494V20.1239H51.5677V18.4342ZM61.8505 6.62286H63.5459V20.0563H61.8505V6.62286ZM65.8941 6.62286H67.5895C67.6768 6.61365 67.7649 6.61365 67.8523 6.62286C68.5623 6.54606 69.2807 6.61922 69.9605 6.83745C70.6403 7.05577 71.2664 7.41425 71.7979 7.88966C72.3295 8.36506 72.7546 8.94676 73.0457 9.5968C73.3368 10.2468 73.4872 10.9507 73.4872 11.6625C73.4872 12.3743 73.3368 13.0782 73.0457 13.7282C72.7546 14.3783 72.3295 14.96 71.7979 15.4354C71.2664 15.9108 70.6403 16.2693 69.9605 16.4876C69.2807 16.7058 68.5623 16.779 67.8523 16.7022H67.5895V20.0817H65.8941V6.62286ZM67.5895 8.3126V14.9955H67.8523C68.3312 15.0591 68.8181 15.0199 69.2806 14.8806C69.743 14.7414 70.1703 14.5052 70.5337 14.1881C70.8972 13.8709 71.1884 13.48 71.3879 13.0415C71.5875 12.603 71.6908 12.1271 71.6908 11.6456C71.6908 11.1641 71.5875 10.6882 71.3879 10.2497C71.1884 9.81123 70.8972 9.42031 70.5337 9.10314C70.1703 8.78589 69.743 8.54984 69.2806 8.41052C68.8181 8.27128 68.3312 8.23217 67.8523 8.2957C67.76 8.30525 67.6689 8.3251 67.581 8.35484L67.5895 8.3126ZM79.8051 7.59446L78.5505 8.58296C78.3341 8.35755 78.0575 8.19837 77.7535 8.12419C77.4494 8.05001 77.1304 8.06387 76.8339 8.16415C76.5374 8.26436 76.2759 8.44685 76.0799 8.69017C75.8839 8.93349 75.7617 9.22751 75.7276 9.53766V9.67284C75.7276 10.4163 76.2447 10.9148 77.2535 10.9824C81.136 11.219 82.9162 13.0354 82.9162 15.4349V15.5869C82.8159 16.5366 82.4441 17.4375 81.8449 18.1827C81.2458 18.9279 80.4444 19.4858 79.5364 19.7902C78.6282 20.0945 77.6515 20.1325 76.7223 19.8996C75.7931 19.6667 74.9506 19.1727 74.2949 18.4764L75.5919 17.4794C75.8938 17.8019 76.2625 18.0551 76.6724 18.2214C77.0822 18.3877 77.5235 18.4632 77.9655 18.4426C78.7821 18.4855 79.5836 18.2124 80.2028 17.6802C80.822 17.1481 81.211 16.3981 81.2886 15.5869V15.4687C81.2886 13.2129 79.0676 12.7989 77.1433 12.613C75.3631 12.444 74.083 11.3372 74.083 9.74043V9.67284C74.1457 8.84149 74.5264 8.0659 75.1464 7.50625C75.7663 6.94653 76.5783 6.64541 77.4145 6.6651C77.8577 6.65209 78.2986 6.73176 78.709 6.89913C79.1193 7.0665 79.4898 7.31776 79.7966 7.6367L79.8051 7.59446ZM89.5538 18.3412C91.6646 18.3412 93.3346 16.0685 93.3346 13.272V6.51302H95.0301V13.272C95.0301 16.9894 92.5886 19.9887 89.5877 19.9887C86.5868 19.9887 84.1454 16.9894 84.1454 13.272V6.51302H85.8408V13.272C85.773 16.1108 87.443 18.3835 89.5453 18.3835L89.5538 18.3412ZM108.042 20.031H106.347V11.6667L102.439 16.736L98.5311 11.6667V20.0563H96.8357V6.62286L102.431 13.9648L108.026 6.62286L108.042 20.031Z" fill="#27272A"/>
<path d="M10.2075 4.60376C10.2075 3.38479 9.7217 2.21576 8.85686 1.35383C7.99202 0.491889 6.81902 0.00765991 5.59595 0.00765991C4.37288 0.00765991 3.19991 0.491889 2.33507 1.35383C1.47023 2.21576 0.984375 3.38479 0.984375 4.60376V18.5019L4.78214 21.2139V27.8208H6.40976V21.2139L10.2075 18.5019V4.60376ZM8.57991 12.3766L6.40976 14.5394V12.5118L8.57991 10.3489V12.3766ZM2.6459 10.3489L4.81605 12.5118V14.5394L2.6459 12.3766V10.3489ZM8.57991 8.05083L5.59595 11.0248L2.61199 7.98324V5.95555L5.59595 8.9295L8.57991 5.95555V8.05083ZM5.59595 1.62981C6.25221 1.6327 6.88942 1.84993 7.40997 2.2482C7.93056 2.64647 8.30576 3.20383 8.47818 3.83493L5.59595 6.69904L2.71371 3.83493C2.87982 3.19755 3.25233 2.63263 3.77347 2.22782C4.29461 1.823 4.93523 1.60091 5.59595 1.59601V1.62981ZM2.61199 17.6824V14.6408L4.78214 16.8037V19.22L2.61199 17.6824ZM6.40976 19.2285V16.8037L8.57991 14.6408V17.6739L6.40976 19.2285Z" fill="#27272A"/>
</svg>
