<svg width="145" height="31" viewBox="0 0 145 31" fill="none" xmlns="http://www.w3.org/2000/svg">
<path d="M0.851562 15.0199C0.851562 7.93946 0.851562 4.39923 3.05118 2.19962C5.25079 0 8.79102 0 15.8715 0C22.952 0 26.4922 0 28.6918 2.19962C30.8914 4.39923 30.8914 7.93946 30.8914 15.0199C30.8914 22.1004 30.8914 25.6406 28.6918 27.8403C26.4922 30.0399 22.952 30.0399 15.8715 30.0399C8.79102 30.0399 5.25079 30.0399 3.05118 27.8403C0.851562 25.6406 0.851562 22.1004 0.851562 15.0199Z" fill="#232B36"/>
<path d="M18.8761 19.5262C19.2909 19.5262 19.6347 19.8657 19.5523 20.2722C19.4067 20.9901 19.0529 21.6556 18.5272 22.1813C17.8231 22.8855 16.868 23.2811 15.8721 23.2811C14.8762 23.2811 13.9212 22.8855 13.217 22.1813C12.6913 21.6556 12.3375 20.9901 12.192 20.2722C12.1095 19.8657 12.4533 19.5262 12.8681 19.5262H18.8761Z" fill="#2DF8BB"/>
<path d="M20.4552 13.3503C20.0545 13.4576 19.8092 13.8767 20.0123 14.2383C20.2261 14.6189 20.5219 14.9511 20.8817 15.2089C21.4466 15.6137 22.1343 15.8101 22.8279 15.7646C23.5213 15.7192 24.1776 15.4347 24.6849 14.9596C25.1922 14.4846 25.5189 13.8482 25.6096 13.1592C25.7004 12.4702 25.5494 11.771 25.1824 11.1808C24.8154 10.5906 24.2551 10.146 23.597 9.92256C22.9389 9.69914 22.2237 9.71085 21.5733 9.95568C21.159 10.1116 20.7874 10.3559 20.4824 10.6681C20.1926 10.9649 20.3211 11.4333 20.6803 11.6406L21.0612 11.8606C21.6406 12.1951 21.5264 13.0632 20.8801 13.2364L20.4552 13.3503Z" fill="#2DF8BB"/>
<path d="M11.2896 13.3503C11.6902 13.4576 11.9356 13.8767 11.7324 14.2383C11.5186 14.6189 11.2229 14.9511 10.8631 15.2089C10.2982 15.6137 9.6104 15.8101 8.91693 15.7646C8.2234 15.7192 7.56711 15.4347 7.05986 14.9596C6.55262 14.4846 6.22579 13.8482 6.13508 13.1592C6.04437 12.4702 6.19537 11.771 6.56237 11.1808C6.92937 10.5906 7.48966 10.146 8.14777 9.92256C8.80586 9.69914 9.5211 9.71085 10.1715 9.95568C10.5857 10.1116 10.9574 10.3559 11.2624 10.6681C11.5522 10.9649 11.4237 11.4333 11.0645 11.6406L10.6835 11.8606C10.1041 12.1951 10.2184 13.0632 10.8646 13.2364L11.2896 13.3503Z" fill="#2DF8BB"/>
<path d="M47.2521 22.3388L46.4329 19.2109H42.8767L42.0761 22.3388H39.2461L42.765 9.34304H46.7121L50.2311 22.3388H47.2521ZM44.7386 12.0427H44.5896L43.3236 16.958H46.0046L44.7386 12.0427Z" fill="#232B36"/>
<path d="M52.299 20.1977H55.2408V10.7022H52.299V8.56106H57.9963V20.1977H60.938V22.3388H52.299V20.1977Z" fill="#232B36"/>
<path d="M69.2432 22.3388C68.2503 22.3388 67.5117 22.0781 67.0276 21.5568C66.5436 21.0355 66.3015 20.3714 66.3015 19.5646V14.8728H63.6949V12.7316H65.3892C65.7988 12.7316 66.0905 12.6509 66.2643 12.4896C66.4381 12.3282 66.5249 12.0303 66.5249 11.5959V9.34304H69.0571V12.7316H72.7994V14.8728H69.0571V20.1977H72.7994V22.3388H69.2432Z" fill="#232B36"/>
<path d="M80.6391 22.5622C79.0255 22.5622 77.8029 22.1154 76.9713 21.2217C76.1396 20.328 75.7238 19.1116 75.7238 17.5724C75.7238 16.7905 75.8293 16.0892 76.0403 15.4685C76.2638 14.8355 76.5741 14.3018 76.9713 13.8674C77.3809 13.4205 77.8712 13.0854 78.4421 12.8619C79.0255 12.6261 79.6772 12.5082 80.3971 12.5082C81.117 12.5082 81.7625 12.6261 82.3334 12.8619C82.9044 13.0854 83.3885 13.4081 83.7857 13.8301C84.1829 14.2521 84.487 14.7672 84.698 15.3755C84.9214 15.9712 85.0331 16.6415 85.0331 17.3863V18.2055H78.4608V18.373C78.4608 18.9937 78.6532 19.4964 79.0379 19.8811C79.4227 20.2535 79.9875 20.4397 80.7322 20.4397C81.3032 20.4397 81.7935 20.3342 82.2031 20.1232C82.6127 19.8998 82.9665 19.6081 83.2644 19.2481L84.7538 20.8679C84.3815 21.3272 83.8601 21.7244 83.1899 22.0595C82.5196 22.3947 81.6694 22.5622 80.6391 22.5622ZM80.4157 14.4818C79.8199 14.4818 79.342 14.6679 78.9821 15.0403C78.6345 15.4003 78.4608 15.8906 78.4608 16.5112V16.6601H82.3334V16.5112C82.3334 15.8782 82.1597 15.3817 81.8121 15.0217C81.477 14.6617 81.0115 14.4818 80.4157 14.4818Z" fill="#232B36"/>
<path d="M88.0507 20.1977H90.2663V14.8728H88.0507V12.7316H93.0218V15.4499H93.1521C93.239 15.1024 93.3569 14.7672 93.5059 14.4445C93.6673 14.1094 93.8658 13.8177 94.1017 13.5695C94.3499 13.3088 94.6478 13.104 94.9954 12.955C95.3429 12.8061 95.7525 12.7316 96.2242 12.7316H97.1365V15.2637H95.0885C94.4058 15.2637 93.8907 15.4685 93.5431 15.8782C93.1956 16.2754 93.0218 16.7656 93.0218 17.349V20.1977H96.187V22.3388H88.0507V20.1977Z" fill="#232B36"/>
<path d="M99.6513 8.56106H102.407V14.4818H102.537C102.773 13.9108 103.114 13.4391 103.561 13.0668C104.008 12.6944 104.616 12.5082 105.386 12.5082C105.92 12.5082 106.404 12.6075 106.838 12.8061C107.285 13.0047 107.664 13.3088 107.974 13.7184C108.297 14.128 108.545 14.6493 108.719 15.2824C108.905 15.9154 108.998 16.6663 108.998 17.5352C108.998 18.4041 108.905 19.155 108.719 19.7881C108.545 20.4211 108.297 20.9424 107.974 21.352C107.664 21.7616 107.285 22.0657 106.838 22.2643C106.404 22.4629 105.92 22.5622 105.386 22.5622C104.616 22.5622 104.008 22.3822 103.561 22.0223C103.114 21.6499 102.773 21.172 102.537 20.5887H102.407V22.3388H99.6513V8.56106ZM104.194 20.4211C104.815 20.4211 105.293 20.2349 105.628 19.8625C105.963 19.4777 106.131 18.9502 106.131 18.28V16.7905C106.131 16.1202 105.963 15.5989 105.628 15.2265C105.293 14.8417 104.815 14.6493 104.194 14.6493C103.71 14.6493 103.288 14.7672 102.928 15.0031C102.581 15.2389 102.407 15.6113 102.407 16.1202V18.9502C102.407 19.4591 102.581 19.8315 102.928 20.0673C103.288 20.3032 103.71 20.4211 104.194 20.4211Z" fill="#232B36"/>
<path d="M116.018 22.5622C115.274 22.5622 114.603 22.4505 114.008 22.2271C113.412 21.9913 112.903 21.6561 112.481 21.2217C112.071 20.7873 111.755 20.2597 111.531 19.6391C111.308 19.0185 111.196 18.3172 111.196 17.5352C111.196 16.7532 111.308 16.0519 111.531 15.4313C111.755 14.8107 112.071 14.2832 112.481 13.8487C112.903 13.4143 113.412 13.0854 114.008 12.8619C114.603 12.6261 115.274 12.5082 116.018 12.5082C116.763 12.5082 117.433 12.6261 118.029 12.8619C118.625 13.0854 119.128 13.4143 119.537 13.8487C119.959 14.2832 120.282 14.8107 120.505 15.4313C120.729 16.0519 120.841 16.7532 120.841 17.5352C120.841 18.3172 120.729 19.0185 120.505 19.6391C120.282 20.2597 119.959 20.7873 119.537 21.2217C119.128 21.6561 118.625 21.9913 118.029 22.2271C117.433 22.4505 116.763 22.5622 116.018 22.5622ZM116.018 20.5142C116.639 20.5142 117.123 20.3218 117.471 19.937C117.818 19.5522 117.992 19.0061 117.992 18.2986V16.7718C117.992 16.0643 117.818 15.5182 117.471 15.1334C117.123 14.7486 116.639 14.5562 116.018 14.5562C115.398 14.5562 114.914 14.7486 114.566 15.1334C114.219 15.5182 114.045 16.0643 114.045 16.7718V18.2986C114.045 19.0061 114.219 19.5522 114.566 19.937C114.914 20.3218 115.398 20.5142 116.018 20.5142Z" fill="#232B36"/>
<path d="M123.523 22.3388V12.7316H126.279V14.4818H126.39C126.502 14.2087 126.638 13.9542 126.8 13.7184C126.961 13.4826 127.154 13.2778 127.377 13.104C127.613 12.9178 127.88 12.7751 128.178 12.6758C128.488 12.5641 128.835 12.5082 129.22 12.5082C129.68 12.5082 130.102 12.5889 130.486 12.7502C130.871 12.8992 131.2 13.1288 131.473 13.4391C131.746 13.7494 131.957 14.128 132.106 14.5749C132.268 15.0217 132.348 15.5368 132.348 16.1202V22.3388H129.593V16.4926C129.593 15.2513 129.053 14.6307 127.973 14.6307C127.762 14.6307 127.551 14.6617 127.34 14.7238C127.141 14.7735 126.961 14.8603 126.8 14.9845C126.638 15.0962 126.508 15.2389 126.409 15.4127C126.322 15.5865 126.279 15.7913 126.279 16.0271V22.3388H123.523Z" fill="#232B36"/>
<path d="M140.039 22.5622C138.425 22.5622 137.203 22.1154 136.371 21.2217C135.539 20.328 135.124 19.1116 135.124 17.5724C135.124 16.7905 135.229 16.0892 135.44 15.4685C135.664 14.8355 135.974 14.3018 136.371 13.8674C136.781 13.4205 137.271 13.0854 137.842 12.8619C138.425 12.6261 139.077 12.5082 139.797 12.5082C140.517 12.5082 141.162 12.6261 141.733 12.8619C142.304 13.0854 142.788 13.4081 143.186 13.8301C143.583 14.2521 143.887 14.7672 144.098 15.3755C144.321 15.9712 144.433 16.6415 144.433 17.3863V18.2055H137.861V18.373C137.861 18.9937 138.053 19.4964 138.438 19.8811C138.823 20.2535 139.387 20.4397 140.132 20.4397C140.703 20.4397 141.193 20.3342 141.603 20.1232C142.013 19.8998 142.366 19.6081 142.664 19.2481L144.154 20.8679C143.781 21.3272 143.26 21.7244 142.59 22.0595C141.919 22.3947 141.069 22.5622 140.039 22.5622ZM139.816 14.4818C139.22 14.4818 138.742 14.6679 138.382 15.0403C138.034 15.4003 137.861 15.8906 137.861 16.5112V16.6601H141.733V16.5112C141.733 15.8782 141.559 15.3817 141.212 15.0217C140.877 14.6617 140.411 14.4818 139.816 14.4818Z" fill="#232B36"/>
</svg>
