<svg width="120" height="23" viewBox="0 0 120 23" fill="none" xmlns="http://www.w3.org/2000/svg">
<path d="M16.6445 18.8803L1.80483 8.65735C0.301006 7.62143 0.812206 5.46448 2.68743 4.95725L18.4594 0.682205C18.7935 0.56181 19.1515 0.522727 19.5038 0.568204C19.856 0.613681 20.1923 0.742403 20.4848 0.943689C20.7772 1.14498 21.0174 1.41302 21.1853 1.72557C21.3533 2.03813 21.4442 2.38618 21.4505 2.74084L20.5157 17.238C20.4049 18.9588 18.1483 19.9162 16.6445 18.8803Z" fill="#E9327C"/>
<path d="M11.9373 21.4041L3.19473 4.32952C2.99489 3.93891 2.90695 3.50076 2.94061 3.0634C2.97427 2.62604 3.12822 2.20646 3.38548 1.85093C3.64275 1.4954 3.99334 1.21774 4.39859 1.04855C4.80383 0.879367 5.24799 0.825241 5.68208 0.892147L21.8842 3.38943C22.2571 3.44693 22.6112 3.59204 22.9171 3.81281C23.223 4.03359 23.4721 4.32373 23.6439 4.65939C23.8156 4.99504 23.9052 5.36661 23.9051 5.74355C23.9051 6.12049 23.8154 6.49205 23.6436 6.82764L16.1799 21.4049C15.9795 21.7944 15.6754 22.1212 15.3011 22.3493C14.9268 22.5775 14.4968 22.6981 14.0583 22.698C13.6198 22.6979 13.1899 22.5771 12.8157 22.3489C12.4414 22.1205 12.1375 21.7937 11.9373 21.4041Z" fill="#1DACE3"/>
<path d="M21.4109 3.31606L13.3343 2.07113L3.41797 4.76007L7.37605 12.4931L16.6446 18.8805C16.8491 19.0199 17.074 19.1266 17.3114 19.1969L20.8319 12.3213L21.4109 3.31606Z" fill="#001A49"/>
<path d="M36.001 18.4831C34.8077 18.4831 33.7839 18.2455 32.9295 17.7705C32.0799 17.2955 31.4269 16.6352 30.9702 15.7897C30.5135 14.9394 30.2852 13.9561 30.2852 12.8398C30.2852 11.7187 30.5135 10.7354 30.9702 9.88987C31.4318 9.03958 32.0873 8.37692 32.9368 7.90189C33.7913 7.42687 34.8102 7.18936 35.9936 7.18936C37.0396 7.18936 37.9505 7.37224 38.7263 7.73801C39.5071 8.10378 40.116 8.62156 40.553 9.29134C40.995 9.95637 41.2282 10.7378 41.2528 11.6356H37.8866C37.8179 11.0751 37.6215 10.6357 37.2974 10.3174C36.9782 9.99913 36.5608 9.83999 36.0452 9.83999C35.6278 9.83999 35.262 9.954 34.9477 10.182C34.6334 10.4053 34.3879 10.7378 34.2111 11.1796C34.0392 11.6166 33.9533 12.1581 33.9533 12.8041C33.9533 13.4502 34.0392 13.9965 34.2111 14.443C34.3879 14.8847 34.6334 15.2196 34.9477 15.4477C35.262 15.6709 35.6278 15.7825 36.0452 15.7825C36.3791 15.7825 36.6737 15.7137 36.9291 15.5759C37.1893 15.4382 37.4029 15.2363 37.5699 14.9703C37.7369 14.6995 37.8424 14.3717 37.8866 13.987H41.2528C41.2184 14.8895 40.9852 15.678 40.553 16.3526C40.1258 17.0271 39.5243 17.552 38.7484 17.9273C37.9775 18.2978 37.0617 18.4831 36.001 18.4831Z" fill="#001A49"/>
<path d="M46.2855 18.4617C45.5636 18.4617 44.9228 18.3453 44.363 18.1125C43.8081 17.875 43.3686 17.5188 43.0445 17.0437C42.7253 16.564 42.5657 15.9631 42.5657 15.241C42.5657 14.633 42.6762 14.12 42.8972 13.7019C43.1182 13.2839 43.4226 12.9443 43.8106 12.683C44.1985 12.4217 44.6453 12.2246 45.1511 12.0916C45.6569 11.9538 46.1971 11.8612 46.7716 11.8137C47.4149 11.7567 47.9329 11.6973 48.3258 11.6356C48.7186 11.5691 49.0034 11.4765 49.1802 11.3577C49.3619 11.2342 49.4527 11.0608 49.4527 10.8375V10.8019C49.4527 10.4361 49.3226 10.1535 49.0624 9.954C48.8021 9.75449 48.451 9.65473 48.0091 9.65473C47.5327 9.65473 47.1497 9.75449 46.86 9.954C46.5703 10.1535 46.3861 10.429 46.3076 10.7805L42.9856 10.6665C43.0838 10.0015 43.3367 9.40772 43.7443 8.88519C44.1567 8.35792 44.7215 7.94465 45.4384 7.64538C46.1602 7.34137 47.0269 7.18936 48.0385 7.18936C48.7604 7.18936 49.4257 7.27249 50.0346 7.43875C50.6435 7.60025 51.1739 7.83777 51.6256 8.15128C52.0774 8.46005 52.4261 8.84007 52.6716 9.29134C52.922 9.74261 53.0472 10.258 53.0472 10.8375V18.2764H49.659V16.7516H49.5706C49.3693 17.1221 49.1115 17.4356 48.7972 17.6921C48.4878 17.9487 48.122 18.141 47.6997 18.2693C47.2823 18.3976 46.8109 18.4617 46.2855 18.4617ZM47.3977 16.1816C47.7856 16.1816 48.1343 16.1056 48.4436 15.9536C48.7579 15.8015 49.0083 15.5925 49.1949 15.3265C49.3815 15.0558 49.4748 14.7422 49.4748 14.386V13.3457C49.3717 13.3979 49.2465 13.4454 49.0992 13.4882C48.9568 13.5309 48.7996 13.5713 48.6278 13.6093C48.4559 13.6473 48.2791 13.6806 48.0974 13.7091C47.9158 13.7376 47.7414 13.7637 47.5745 13.7874C47.2356 13.8397 46.9459 13.9204 46.7053 14.0297C46.4696 14.139 46.2879 14.2815 46.1602 14.4572C46.0375 14.6282 45.9761 14.8325 45.9761 15.07C45.9761 15.431 46.1087 15.7065 46.3738 15.8965C46.6439 16.0866 46.9852 16.1816 47.3977 16.1816Z" fill="#001A49"/>
<path d="M55.2496 18.2764V7.33187H58.7484V9.32697H58.8662C59.0724 8.60493 59.4088 8.06815 59.8753 7.71664C60.3418 7.36037 60.8844 7.18223 61.5032 7.18223C61.6701 7.18223 61.842 7.19411 62.0188 7.21786C62.1955 7.23686 62.36 7.26774 62.5123 7.31049V10.3388C62.3404 10.2818 62.1145 10.2366 61.8346 10.2034C61.5596 10.1701 61.3141 10.1535 61.098 10.1535C60.6708 10.1535 60.2853 10.2461 59.9416 10.4314C59.6028 10.6119 59.3352 10.866 59.1387 11.1938C58.9472 11.5168 58.8515 11.8968 58.8515 12.3339V18.2764H55.2496Z" fill="#001A49"/>
<path d="M63.9799 18.2764V3.68368H67.5818V9.20584H67.6554C67.8027 8.87332 68.0114 8.55268 68.2815 8.24391C68.5565 7.93515 68.9051 7.68338 69.3274 7.48862C69.7547 7.28911 70.2654 7.18936 70.8595 7.18936C71.6452 7.18936 72.3793 7.38887 73.0619 7.78789C73.7494 8.18691 74.3043 8.80207 74.7266 9.63336C75.1489 10.4646 75.36 11.524 75.36 12.8113C75.36 14.0511 75.1562 15.089 74.7487 15.9251C74.346 16.7611 73.8009 17.3881 73.1135 17.8061C72.4309 18.2242 71.6722 18.4332 70.8374 18.4332C70.2678 18.4332 69.7743 18.3429 69.3569 18.1624C68.9395 17.9819 68.5884 17.7444 68.3036 17.4499C68.0237 17.1554 67.8076 16.8395 67.6554 16.5022H67.5449V18.2764H63.9799ZM67.5081 12.8041C67.5081 13.3932 67.5891 13.9062 67.7512 14.3432C67.9181 14.7802 68.1563 15.1199 68.4656 15.3621C68.7799 15.5997 69.1556 15.7184 69.5926 15.7184C70.0346 15.7184 70.4102 15.5997 70.7196 15.3621C71.0289 15.1199 71.2622 14.7802 71.4193 14.3432C71.5814 13.9062 71.6624 13.3932 71.6624 12.8041C71.6624 12.2151 71.5814 11.7045 71.4193 11.2722C71.2622 10.8399 71.0289 10.505 70.7196 10.2675C70.4151 10.03 70.0395 9.91125 69.5926 9.91125C69.1507 9.91125 68.775 10.0276 68.4656 10.2604C68.1563 10.4932 67.9181 10.8257 67.7512 11.2579C67.5891 11.6902 67.5081 12.2056 67.5081 12.8041Z" fill="#001A49"/>
<path d="M82.5288 18.4831C81.3404 18.4831 80.319 18.2479 79.4646 17.7776C78.6151 17.3026 77.9595 16.6423 77.4979 15.7968C77.0412 14.9465 76.8129 13.9608 76.8129 12.8398C76.8129 11.714 77.0412 10.7283 77.4979 9.88274C77.9595 9.03245 78.6151 8.37217 79.4646 7.90189C80.319 7.42687 81.3404 7.18936 82.5288 7.18936C83.7171 7.18936 84.736 7.42687 85.5855 7.90189C86.44 8.37217 87.0955 9.03245 87.5522 9.88274C88.0138 10.7283 88.2446 11.714 88.2446 12.8398C88.2446 13.9608 88.0138 14.9465 87.5522 15.7968C87.0955 16.6423 86.44 17.3026 85.5855 17.7776C84.736 18.2479 83.7171 18.4831 82.5288 18.4831ZM82.5508 15.8538C82.983 15.8538 83.3488 15.7255 83.6483 15.469C83.9479 15.2125 84.1762 14.8562 84.3334 14.4002C84.4954 13.9442 84.5764 13.4169 84.5764 12.8184C84.5764 12.2104 84.4954 11.6783 84.3334 11.2223C84.1762 10.7663 83.9479 10.41 83.6483 10.1535C83.3488 9.897 82.983 9.76874 82.5508 9.76874C82.104 9.76874 81.7259 9.897 81.4165 10.1535C81.1121 10.41 80.8788 10.7663 80.7168 11.2223C80.5596 11.6783 80.4811 12.2104 80.4811 12.8184C80.4811 13.4169 80.5596 13.9442 80.7168 14.4002C80.8788 14.8562 81.1121 15.2125 81.4165 15.469C81.7259 15.7255 82.104 15.8538 82.5508 15.8538Z" fill="#001A49"/>
<path d="M93.6916 12.0346V18.2764H90.0897V7.33187H93.5148V9.34122H93.64C93.8905 8.67143 94.3177 8.14653 94.9217 7.76651C95.5257 7.38174 96.245 7.18936 97.0798 7.18936C97.8753 7.18936 98.5653 7.36274 99.1496 7.70951C99.7389 8.05153 100.196 8.5313 100.52 9.14883C100.849 9.76161 101.011 10.4789 101.006 11.3007V18.2764H97.4039V11.9847C97.4088 11.3767 97.2493 10.9017 96.9252 10.5597C96.606 10.2176 96.1616 10.0466 95.5919 10.0466C95.2138 10.0466 94.8799 10.1274 94.5902 10.2889C94.3054 10.4456 94.0844 10.6713 93.9273 10.9658C93.7751 11.2603 93.6965 11.6166 93.6916 12.0346Z" fill="#001A49"/>
<path d="M103.236 18.2764V7.33187H106.838V18.2764H103.236ZM105.04 6.05643C104.535 6.05643 104.1 5.89492 103.737 5.5719C103.373 5.24413 103.192 4.84986 103.192 4.38909C103.192 3.93307 103.373 3.54355 103.737 3.22053C104.1 2.89277 104.535 2.72888 105.04 2.72888C105.551 2.72888 105.986 2.89277 106.344 3.22053C106.708 3.54355 106.889 3.93307 106.889 4.38909C106.889 4.84986 106.708 5.24413 106.344 5.5719C105.986 5.89492 105.551 6.05643 105.04 6.05643Z" fill="#001A49"/>
<path d="M112.32 18.4617C111.598 18.4617 110.957 18.3453 110.397 18.1125C109.842 17.875 109.403 17.5188 109.079 17.0437C108.759 16.564 108.6 15.9631 108.6 15.241C108.6 14.633 108.71 14.12 108.931 13.7019C109.152 13.2839 109.457 12.9443 109.845 12.683C110.233 12.4217 110.68 12.2246 111.185 12.0916C111.691 11.9538 112.231 11.8612 112.806 11.8137C113.449 11.7567 113.967 11.6973 114.36 11.6356C114.753 11.5691 115.038 11.4765 115.214 11.3577C115.396 11.2342 115.487 11.0608 115.487 10.8375V10.8019C115.487 10.4361 115.357 10.1535 115.097 9.954C114.836 9.75449 114.485 9.65473 114.043 9.65473C113.567 9.65473 113.184 9.75449 112.894 9.954C112.604 10.1535 112.42 10.429 112.342 10.7805L109.02 10.6665C109.118 10.0015 109.371 9.40772 109.778 8.88519C110.191 8.35792 110.756 7.94465 111.473 7.64538C112.194 7.34137 113.061 7.18936 114.073 7.18936C114.795 7.18936 115.46 7.27249 116.069 7.43875C116.678 7.60025 117.208 7.83777 117.66 8.15128C118.112 8.46005 118.46 8.84007 118.706 9.29134C118.956 9.74261 119.081 10.258 119.081 10.8375V18.2764H115.693V16.7516H115.605C115.403 17.1221 115.146 17.4356 114.831 17.6921C114.522 17.9487 114.156 18.141 113.734 18.2693C113.316 18.3976 112.845 18.4617 112.32 18.4617ZM113.432 16.1816C113.82 16.1816 114.168 16.1056 114.478 15.9536C114.792 15.8015 115.043 15.5925 115.229 15.3265C115.416 15.0558 115.509 14.7422 115.509 14.386V13.3457C115.406 13.3979 115.281 13.4454 115.133 13.4882C114.991 13.5309 114.834 13.5713 114.662 13.6093C114.49 13.6473 114.313 13.6806 114.132 13.7091C113.95 13.7376 113.776 13.7637 113.609 13.7874C113.27 13.8397 112.98 13.9204 112.739 14.0297C112.504 14.139 112.322 14.2815 112.194 14.4572C112.072 14.6282 112.01 14.8325 112.01 15.07C112.01 15.431 112.143 15.7065 112.408 15.8965C112.678 16.0866 113.019 16.1816 113.432 16.1816Z" fill="#001A49"/>
</svg>
