<svg width="130" height="24" viewBox="0 0 130 24" fill="none" xmlns="http://www.w3.org/2000/svg">
<path d="M0.59375 19.7009C4.113 19.7009 6.96589 16.8479 6.96589 13.3287C6.96589 9.80947 4.113 6.95656 0.59375 6.95656V11.417C1.64952 11.417 2.50538 12.2729 2.50538 13.3287C2.50538 14.3845 1.64952 15.2404 0.59375 15.2404V19.7009Z" fill="#E11D48"/>
<path d="M21.8351 9.08071C20.7462 8.73577 19.5866 8.54965 18.3835 8.54965C12.0782 8.54965 6.9668 13.6612 6.9668 19.9664C6.9668 20.5993 7.0183 21.2202 7.11731 21.825H14.2109C13.9577 21.2573 13.8169 20.6283 13.8169 19.9664C13.8169 17.4443 15.8614 15.3997 18.3835 15.3997C19.762 15.3997 20.9978 16.0105 21.8351 16.9761V9.08071Z" fill="#FDA4AF"/>
<path d="M1.71484 0.584381C2.24314 5.36344 6.29486 9.08061 11.2147 9.08061C16.1346 9.08061 20.1863 5.36344 20.7146 0.584381H13.8791C13.4571 1.64227 12.4232 2.38982 11.2147 2.38982C10.0063 2.38982 8.97243 1.64227 8.55036 0.584381H1.71484Z" fill="#FB7185"/>
<path d="M39.1314 5.88942H41.6377C43.0814 5.88942 43.8433 5.92952 44.5852 6.02978V3.34297C43.8232 3.44323 43.0814 3.48333 41.6377 3.48333H33.6976C32.5547 3.48333 31.6925 3.44323 30.9707 3.34297V6.02978C31.6725 5.92952 32.5347 5.88942 33.7177 5.88942H36.4245V16.8371C36.4245 17.9199 36.3844 18.6016 36.2641 19.4437H39.2918C39.1715 18.6217 39.1314 17.9199 39.1314 16.8371V5.88942Z" fill="#001A49"/>
<path d="M46.1288 3.48333V6.02978H49.0762V3.48333H46.1288ZM46.1288 7.9346C46.2491 8.75668 46.2892 9.43841 46.2892 10.5412V16.8371C46.2892 17.8397 46.2491 18.5415 46.1288 19.4437H49.0562C48.9559 18.6016 48.9158 17.9199 48.9158 16.8171V10.5612C48.9158 9.33815 48.9559 8.67648 49.0562 7.9346H46.1288Z" fill="#001A49"/>
<path d="M54.4596 19.4437C54.3392 18.5816 54.2991 17.8196 54.2991 16.8371V12.7869C55.1814 10.8019 56.3644 9.79932 57.808 9.79932C58.57 9.79932 59.1715 10.1001 59.4923 10.6214C59.7329 11.0024 59.8332 11.5437 59.8332 12.3859V16.8371C59.8332 17.8597 59.7931 18.5415 59.6928 19.4437H62.6002C62.4799 18.7019 62.4398 17.9399 62.4398 16.8371V12.025C62.4398 10.6816 62.2393 9.87952 61.758 9.21785C61.0362 8.23536 59.8933 7.73409 58.3494 7.73409C56.5448 7.73409 55.4821 8.29551 54.259 9.85947C54.2991 9.3582 54.2991 9.29805 54.2991 8.99729V7.9346H51.5722C51.6925 8.75668 51.7326 9.43841 51.7326 10.5412V16.8371C51.7326 17.96 51.6925 18.5816 51.5722 19.4437H54.4596Z" fill="#001A49"/>
<path d="M68.8931 18.6417L68.2114 20.1856C67.9307 20.8072 67.3492 21.1882 66.6474 21.1882C66.1863 21.1882 65.8053 21.0879 65.2439 20.8473L64.7827 23.1331C65.7051 23.3135 66.2865 23.3737 66.8881 23.3737C68.7528 23.3737 69.9358 22.6719 70.5774 21.1481L75.149 10.4209C75.7505 9.01734 76.1114 8.19526 76.2317 7.9346H73.2441C73.1238 8.57622 72.9634 9.07749 72.4822 10.3006L70.2566 15.975L67.8104 10.2805C67.4495 9.45846 67.1487 8.51607 67.0485 7.9346H64.0007C64.2413 8.37572 64.2614 8.43587 65.1436 10.4209L68.8931 18.6417Z" fill="#001A49"/>
<path d="M77.4133 21.2884C78.7767 22.8323 80.1001 23.3737 82.446 23.3737C84.5113 23.3737 86.1755 22.9125 87.178 22.0904C88.341 21.108 88.8623 19.564 88.8623 17.158V10.4409C88.8623 9.3582 88.9024 8.79678 89.0026 7.9346H86.3158V8.85693C86.3158 9.07749 86.3158 9.11759 86.3559 9.51861C85.4938 8.29551 84.3108 7.75414 82.5262 7.75414C79.278 7.75414 77.1727 9.99983 77.1727 13.4686C77.1727 16.8973 79.2179 19.0828 82.4059 19.0828C84.1503 19.0828 85.3333 18.5214 86.3359 17.2582C86.2958 18.6217 86.1554 19.3234 85.8146 19.925C85.2531 20.8874 84.0701 21.4288 82.5262 21.4288C81.0826 21.4288 80.2003 20.9876 79.4184 19.9049L77.4133 21.2884ZM79.7993 13.5288C79.7993 11.1427 81.0425 9.63891 83.0476 9.63891C83.7694 9.63891 84.4311 9.89957 84.9925 10.3607C85.7945 11.0425 86.1955 12.045 86.1955 13.3283C86.1955 14.2506 86.0151 14.9925 85.6341 15.614C85.0727 16.5564 83.9498 17.1981 82.847 17.1981C82.0851 17.1981 81.2229 16.8371 80.7217 16.2958C80.1201 15.6942 79.7993 14.7118 79.7993 13.5288Z" fill="#001A49"/>
<path d="M97.0507 19.8247C100.62 19.8247 102.966 17.3785 102.966 13.6691C102.966 9.95972 100.66 7.59373 97.0306 7.59373C93.3814 7.59373 91.0555 9.97978 91.0555 13.7092C91.0555 17.4587 93.3814 19.8247 97.0507 19.8247ZM97.0306 9.67901C99.156 9.67901 100.379 11.1628 100.379 13.7493C100.379 16.1955 99.0958 17.6993 97.0106 17.6993C94.9253 17.6993 93.642 16.1755 93.642 13.7092C93.642 11.2029 94.9253 9.67901 97.0306 9.67901Z" fill="#001A49"/>
<path d="M107.856 19.4437C107.736 18.5816 107.696 17.8196 107.696 16.8371V12.7869C108.578 10.8019 109.761 9.79932 111.205 9.79932C111.967 9.79932 112.568 10.1001 112.889 10.6214C113.13 11.0024 113.23 11.5437 113.23 12.3859V16.8371C113.23 17.8597 113.19 18.5415 113.09 19.4437H115.997C115.877 18.7019 115.837 17.9399 115.837 16.8371V12.025C115.837 10.6816 115.636 9.87952 115.155 9.21785C114.433 8.23536 113.29 7.73409 111.746 7.73409C109.942 7.73409 108.879 8.29551 107.656 9.85947C107.696 9.3582 107.696 9.29805 107.696 8.99729V7.9346H104.969C105.089 8.75668 105.13 9.43841 105.13 10.5412V16.8371C105.13 17.96 105.089 18.5816 104.969 19.4437H107.856Z" fill="#001A49"/>
<path d="M129.248 14.3508C129.208 13.8897 129.208 13.8295 129.208 13.7894C129.147 12.426 129.007 11.7041 128.626 10.7417C127.824 8.73663 125.979 7.57368 123.633 7.57368C120.205 7.57368 117.979 9.99983 117.979 13.7092C117.979 17.4587 120.225 19.8247 123.774 19.8247C125.458 19.8247 126.862 19.3034 127.904 18.2808C128.406 17.7795 128.666 17.3986 129.127 16.4361L126.761 15.6742C126.561 16.2156 126.421 16.4361 126.18 16.7168C125.598 17.3585 124.756 17.7194 123.774 17.7194C122.751 17.7194 121.849 17.3184 121.267 16.5965C120.806 16.0151 120.626 15.4536 120.526 14.3508H129.248ZM120.586 12.3658C120.886 10.6816 122.029 9.63891 123.593 9.63891C124.536 9.63891 125.217 9.89957 125.759 10.4409C126.26 10.9422 126.501 11.4836 126.641 12.3658H120.586Z" fill="#001A49"/>
</svg>
