<svg width="88" height="24" viewBox="0 0 88 24" fill="none" xmlns="http://www.w3.org/2000/svg">
<path d="M28.104 11.9771C28.104 9.03095 26.9336 6.20541 24.8503 4.12214C22.767 2.03887 19.9415 0.8685 16.9953 0.8685C14.0492 0.868499 11.2236 2.03887 9.14037 4.12214C7.05709 6.20541 5.88672 9.03095 5.88672 11.9771H9.35821C10.5085 11.9771 11.4057 11.0131 11.827 9.94269C12.1037 9.23991 12.5234 8.59406 13.0678 8.04961C14.1095 7.00799 15.5222 6.42281 16.9953 6.42281C18.4684 6.42281 19.8812 7.00799 20.9228 8.04961C21.9645 9.09125 22.5496 10.504 22.5496 11.9771H28.104Z" fill="url(#paint0_linear_5_990)"/>
<path d="M21.7064 16.2281C22.2647 14.8803 22.552 13.4358 22.552 11.9771H28.1057C28.1057 18.1122 23.1322 23.0856 16.9971 23.0856C16.0363 23.0856 15.104 22.9637 14.2148 22.7344C14.7179 22.6048 15.2124 22.4397 15.6944 22.2401C17.0422 21.6818 18.2668 20.8636 19.2984 19.832C20.3299 18.8005 21.1482 17.5759 21.7064 16.2281Z" fill="#FBCF8E"/>
<path d="M0.333984 11.9771C0.333984 13.4359 0.621317 14.8804 1.17958 16.2282C1.73784 17.576 2.55609 18.8006 3.58762 19.8321C4.61915 20.8636 5.84376 21.6819 7.19151 22.2401C8.53926 22.7984 9.98377 23.0857 11.4426 23.0857C12.9014 23.0857 14.3459 22.7984 15.6937 22.2401C17.0414 21.6819 18.266 20.8636 19.2976 19.8321C20.3291 18.8006 21.1473 17.576 21.7056 16.2282C22.2639 14.8804 22.5512 13.4359 22.5512 11.9771H19.0797C17.9294 11.9771 17.0323 12.9411 16.6109 14.0114C16.599 14.0419 16.5866 14.0723 16.5741 14.1027C16.295 14.7765 15.8859 15.3888 15.3701 15.9046C14.8543 16.4203 14.242 16.8295 13.5681 17.1086C12.8943 17.3878 12.172 17.5314 11.4426 17.5314C10.7132 17.5314 9.99094 17.3878 9.31709 17.1086C8.64317 16.8295 8.0309 16.4203 7.5151 15.9046C6.99934 15.3888 6.59022 14.7765 6.31109 14.1027C6.03195 13.4287 5.88829 12.7065 5.88829 11.9771H0.333984Z" fill="url(#paint1_linear_5_990)"/>
<path d="M0.335938 11.977C0.335938 5.84184 5.30942 0.868362 11.4445 0.868362C12.4051 0.868362 13.3372 0.990275 14.2262 1.21948C12.3186 1.7109 10.5588 2.70541 9.14217 4.12201C7.05891 6.20525 5.88856 9.03082 5.88856 11.977H0.335938Z" fill="#73E5E2"/>
<path d="M39.0747 6.3108V12.0811H40.3408C40.7628 12.0811 41.0874 11.9675 41.3147 11.7403C41.5419 11.513 41.6555 11.091 41.6555 10.4742V7.91773C41.6555 7.30093 41.5419 6.87891 41.3147 6.65167C41.0874 6.42443 40.7628 6.3108 40.3408 6.3108H39.0747ZM40.3408 3.87607C41.688 3.87607 42.6862 4.23316 43.3355 4.94735C44.001 5.66154 44.3337 6.70848 44.3337 8.08816V10.3038C44.3337 11.6835 44.001 12.7304 43.3355 13.4446C42.6862 14.1588 41.688 14.5159 40.3408 14.5159H39.0747V20.9192H36.3965V3.87607H40.3408Z" fill="#1A1A29"/>
<path d="M49.6847 6.3108V11.5455H50.7316C51.2348 11.5455 51.6244 11.4156 51.9003 11.1559C52.1925 10.8962 52.3386 10.4255 52.3386 9.74378V8.06381C52.3386 7.44701 52.2249 7.00065 51.9977 6.72471C51.7867 6.44877 51.4458 6.3108 50.9751 6.3108H49.6847ZM52.6064 20.9192C52.5739 20.8056 52.5415 20.7001 52.509 20.6027C52.4765 20.5053 52.4441 20.3836 52.4116 20.2375C52.3954 20.0914 52.3791 19.9047 52.3629 19.6775C52.3629 19.4503 52.3629 19.1662 52.3629 18.8253V16.1471C52.3629 15.3518 52.2249 14.7918 51.949 14.4672C51.6731 14.1425 51.2267 13.9802 50.6099 13.9802H49.6847V20.9192H47.0065V3.87607H51.0482C52.4441 3.87607 53.4504 4.2007 54.0672 4.84996C54.7003 5.49923 55.0168 6.48124 55.0168 7.79599V9.1351C55.0168 10.8881 54.4324 12.0406 53.2638 12.5924C53.9455 12.8684 54.4081 13.3228 54.6516 13.9559C54.9113 14.5727 55.0411 15.3274 55.0411 16.2202V18.8497C55.0411 19.2717 55.0574 19.645 55.0898 19.9697C55.1223 20.2781 55.2034 20.5946 55.3333 20.9192H52.6064Z" fill="#1A1A29"/>
<path d="M60.9129 11.0585H64.5894V13.4933H60.9129V18.4845H65.5389V20.9192H58.2347V3.87607H65.5389V6.3108H60.9129V11.0585Z" fill="#1A1A29"/>
<path d="M68.2899 7.96642C68.2899 6.58674 68.6145 5.53169 69.2638 4.80127C69.9292 4.05462 70.9194 3.68129 72.2341 3.68129C73.5489 3.68129 74.5309 4.05462 75.1802 4.80127C75.8457 5.53169 76.1784 6.58674 76.1784 7.96642V8.6238H73.6463V7.79599C73.6463 7.17919 73.5245 6.74906 73.2811 6.50558C73.0538 6.24588 72.7292 6.11602 72.3072 6.11602C71.8852 6.11602 71.5524 6.24588 71.3089 6.50558C71.0817 6.74906 70.9681 7.17919 70.9681 7.79599C70.9681 8.38033 71.0979 8.89974 71.3576 9.35422C71.6173 9.79248 71.942 10.2145 72.3315 10.6203C72.7211 11.0098 73.135 11.4075 73.5732 11.8133C74.0277 12.2029 74.4497 12.633 74.8393 13.1037C75.2289 13.5744 75.5535 14.1101 75.8132 14.7106C76.0729 15.3112 76.2028 16.0173 76.2028 16.8289C76.2028 18.2085 75.8619 19.2717 75.1802 20.0184C74.5147 20.7488 73.5245 21.114 72.2098 21.114C70.895 21.114 69.8968 20.7488 69.2151 20.0184C68.5496 19.2717 68.2168 18.2085 68.2168 16.8289V15.6602H70.7489V16.9993C70.7489 17.6161 70.8707 18.0462 71.1142 18.2897C71.3739 18.5332 71.7147 18.6549 72.1367 18.6549C72.5588 18.6549 72.8915 18.5332 73.135 18.2897C73.3947 18.0462 73.5245 17.6161 73.5245 16.9993C73.5245 16.415 73.3947 15.9037 73.135 15.4654C72.8753 15.0109 72.5506 14.5889 72.1611 14.1993C71.7715 13.7936 71.3495 13.3959 70.895 13.0063C70.4568 12.6005 70.0429 12.1623 69.6533 11.6916C69.2637 11.2209 68.9391 10.6852 68.6794 10.0846C68.4197 9.48408 68.2899 8.778 68.2899 7.96642Z" fill="#1A1A29"/>
<path d="M78.9503 7.96642C78.9503 6.58674 79.2993 5.53169 79.9972 4.80127C80.6952 4.05462 81.7015 3.68129 83.0163 3.68129C84.331 3.68129 85.3374 4.05462 86.0354 4.80127C86.7333 5.53169 87.0823 6.58674 87.0823 7.96642V16.8289C87.0823 18.2085 86.7333 19.2717 86.0354 20.0184C85.3374 20.7488 84.331 21.114 83.0163 21.114C81.7015 21.114 80.6952 20.7488 79.9972 20.0184C79.2993 19.2717 78.9503 18.2085 78.9503 16.8289V7.96642ZM81.6285 16.9993C81.6285 17.6161 81.7502 18.0543 81.9937 18.3141C82.2534 18.5575 82.5943 18.6793 83.0163 18.6793C83.4383 18.6793 83.771 18.5575 84.0145 18.3141C84.2742 18.0543 84.4041 17.6161 84.4041 16.9993V7.79599C84.4041 7.17919 84.2742 6.74906 84.0145 6.50558C83.771 6.24588 83.4383 6.11602 83.0163 6.11602C82.5943 6.11602 82.2534 6.24588 81.9937 6.50558C81.7502 6.74906 81.6285 7.17919 81.6285 7.79599V16.9993Z" fill="#1A1A29"/>
<defs>
<linearGradient id="paint0_linear_5_990" x1="28.104" y1="6.42281" x2="5.88672" y2="6.42281" gradientUnits="userSpaceOnUse">
<stop stop-color="#73E5E2"/>
<stop offset="1" stop-color="#394F87"/>
</linearGradient>
<linearGradient id="paint1_linear_5_990" x1="0.333985" y1="17.5314" x2="22.5512" y2="17.5314" gradientUnits="userSpaceOnUse">
<stop stop-color="#FBDC8E"/>
<stop offset="1" stop-color="#FB958E"/>
</linearGradient>
</defs>
</svg>
