<svg width="106" height="26" viewBox="0 0 106 26" fill="none" xmlns="http://www.w3.org/2000/svg">
<path d="M17.8809 11.9116C18.775 11.1629 19.3436 10.0382 19.3436 8.78077C19.3436 7.52337 18.775 6.39874 17.8809 5.64999C17.9833 5.60036 18.0819 5.54651 18.1759 5.48815C18.769 5.11939 19.469 4.90642 20.2187 4.90642C22.3585 4.90642 24.0931 6.64107 24.0931 8.78077C24.0931 10.9205 22.3585 12.6552 20.2187 12.6552C19.469 12.6552 18.769 12.4422 18.1759 12.0735C18.0819 12.0151 17.9833 11.9613 17.8809 11.9116Z" fill="url(#paint0_linear_5_996)"/>
<path d="M16.8047 9.39083C17.2046 8.29535 17.1347 7.03709 16.506 5.94812C15.8773 4.85915 14.8225 4.16948 13.6738 3.96811C13.7378 3.87392 13.7962 3.77797 13.8483 3.68045C14.1776 3.06457 14.6774 2.53012 15.3267 2.15524C17.1798 1.08536 19.5493 1.72028 20.6192 3.57336C21.6891 5.42645 21.0542 7.79601 19.201 8.86586C18.5517 9.24074 17.839 9.4063 17.141 9.38353C17.0305 9.37988 16.9182 9.3826 16.8047 9.39083Z" fill="url(#paint1_linear_5_996)"/>
<path d="M14.6122 7.74546C14.4108 6.59677 13.7211 5.54202 12.6322 4.9133C11.5432 4.28458 10.2849 4.21469 9.18945 4.61464C9.19776 4.50111 9.20041 4.38878 9.19676 4.27827C9.17399 3.58026 9.33955 2.86755 9.71443 2.21823C10.7843 0.365145 13.1538 -0.269769 15.007 0.800111C16.86 1.86999 17.495 4.23953 16.4251 6.09263C16.0502 6.74192 15.5158 7.24169 14.8998 7.57095C14.8024 7.62308 14.7064 7.68151 14.6122 7.74546Z" fill="url(#paint2_linear_5_996)"/>
<path d="M11.89 7.41712C11.1412 6.52299 10.0166 5.95441 8.75915 5.95441C7.50168 5.95441 6.37707 6.52299 5.62833 7.41712C5.57873 7.31464 5.52487 7.21603 5.46648 7.12208C5.09773 6.52901 4.88477 5.82902 4.88477 5.07925C4.88477 2.93949 6.61939 1.20486 8.75915 1.20486C10.8989 1.20486 12.6335 2.93949 12.6335 5.07925C12.6335 5.82902 12.4206 6.52901 12.0518 7.12208C11.9934 7.21603 11.9396 7.31464 11.89 7.41712Z" fill="url(#paint3_linear_5_996)"/>
<path d="M9.36863 8.49324C8.27314 8.0933 7.01486 8.16319 5.92588 8.79186C4.8369 9.42059 4.14724 10.4753 3.94587 11.624C3.85168 11.5601 3.75572 11.5016 3.65821 11.4495C3.04233 11.1203 2.50788 10.6205 2.133 9.9712C1.06311 8.11808 1.69803 5.74858 3.55112 4.67869C5.40421 3.6088 7.77373 4.24371 8.84366 6.09682C9.21853 6.74611 9.3841 7.45884 9.36125 8.15682C9.35767 8.26732 9.36032 8.37967 9.36863 8.49324Z" fill="url(#paint4_linear_5_996)"/>
<path d="M7.72293 10.686C6.5742 10.8874 5.51947 11.5771 4.89075 12.6661C4.26203 13.755 4.19214 15.0133 4.59209 16.1088C4.47855 16.1005 4.3662 16.0978 4.25568 16.1014C3.55768 16.1242 2.84496 15.9587 2.19565 15.5838C0.342562 14.5139 -0.292353 12.1444 0.777528 10.2913C1.84741 8.43822 4.21694 7.80325 6.07004 8.87317C6.71934 9.24805 7.21909 9.78248 7.54834 10.3983C7.60047 10.4959 7.65898 10.5918 7.72293 10.686Z" fill="url(#paint5_linear_5_996)"/>
<path d="M7.39388 13.4078C6.49976 14.1565 5.93115 15.2812 5.93115 16.5386C5.93115 17.796 6.49976 18.9207 7.39388 19.6694C7.29141 19.719 7.19279 19.7729 7.09888 19.8313C6.5058 20.2 5.80578 20.4129 5.05602 20.4129C2.91626 20.4129 1.18164 18.6783 1.18164 16.5386C1.18164 14.3988 2.91626 12.6642 5.05602 12.6642C5.80578 12.6642 6.5058 12.8772 7.09888 13.2459C7.19279 13.3043 7.29141 13.3582 7.39388 13.4078Z" fill="url(#paint6_linear_5_996)"/>
<path d="M8.46906 15.9292C8.06904 17.0247 8.13894 18.2829 8.76767 19.3719C9.39641 20.461 10.4511 21.1506 11.5998 21.3519C11.5359 21.4462 11.4775 21.5421 11.4253 21.6397C11.0961 22.2555 10.5963 22.7899 9.94701 23.1648C8.09389 24.2347 5.72436 23.5998 4.65448 21.7467C3.5846 19.8936 4.21952 17.5241 6.0726 16.4542C6.72192 16.0793 7.43465 15.9137 8.13263 15.9366C8.24313 15.9402 8.35548 15.9375 8.46906 15.9292Z" fill="url(#paint7_linear_5_996)"/>
<path d="M10.6626 17.575C10.864 18.7237 11.5537 19.7784 12.6426 20.4071C13.7316 21.0358 14.9899 21.1057 16.0854 20.7058C16.0771 20.8193 16.0745 20.9316 16.0781 21.0422C16.1009 21.7402 15.9353 22.4529 15.5605 23.1022C14.4905 24.9553 12.121 25.5902 10.2679 24.5203C8.4148 23.4504 7.7799 21.0809 8.84983 19.2278C9.22471 18.5785 9.75913 18.0788 10.375 17.7495C10.4725 17.6974 10.5685 17.6389 10.6626 17.575Z" fill="url(#paint8_linear_5_996)"/>
<path d="M13.3842 17.9042C14.1329 18.7983 15.2575 19.3669 16.515 19.3669C17.7725 19.3669 18.8971 18.7983 19.6459 17.9042C19.6954 18.0067 19.7493 18.1053 19.8077 18.1992C20.1764 18.7922 20.3894 19.4923 20.3894 20.242C20.3894 22.3818 18.6548 24.1164 16.515 24.1164C14.3752 24.1164 12.6406 22.3818 12.6406 20.242C12.6406 19.4923 12.8536 18.7922 13.2223 18.1992C13.2807 18.1053 13.3346 18.0067 13.3842 17.9042Z" fill="url(#paint9_linear_5_996)"/>
<path d="M15.9062 16.8283C17.0017 17.2282 18.26 17.1583 19.349 16.5297C20.4379 15.9009 21.1276 14.8462 21.329 13.6975C21.4231 13.7614 21.5191 13.8199 21.6166 13.872C22.2326 14.2013 22.767 14.7011 23.1419 15.3503C24.2118 17.2035 23.5768 19.573 21.7238 20.6429C19.8706 21.7127 17.5011 21.0778 16.4312 19.2247C16.0563 18.5754 15.8908 17.8627 15.9136 17.1647C15.9172 17.0542 15.9146 16.9419 15.9062 16.8283Z" fill="url(#paint10_linear_5_996)"/>
<path d="M20.3852 12.6517C20.3845 12.653 20.3837 12.6544 20.3829 12.6558C19.7542 13.7447 18.6995 14.4344 17.5508 14.6358C17.6147 14.73 17.6732 14.826 17.7253 14.9234C18.0546 15.5394 18.5543 16.0738 19.2036 16.4487C21.0567 17.5186 23.4262 16.8836 24.4962 15.0306C25.4133 13.4418 25.0776 11.4736 23.7954 10.2701C23.2321 11.6219 21.925 12.5861 20.3852 12.6517Z" fill="url(#paint11_linear_5_996)"/>
<path d="M33.8398 21.2029V5.57888H40.004C41.1839 5.57888 42.1909 5.78994 43.025 6.21207C43.8642 6.62912 44.5025 7.22163 44.9399 7.98961C45.3824 8.7525 45.6036 9.65016 45.6036 10.6826C45.6036 11.7201 45.3798 12.6127 44.9323 13.3603C44.4847 14.1029 43.8362 14.6725 42.9869 15.0692C42.1426 15.4659 41.1204 15.6643 39.9201 15.6643H35.7928V13.0094H39.386C40.0167 13.0094 40.5406 12.923 40.9576 12.75C41.3746 12.5771 41.6849 12.3177 41.8883 11.9719C42.0968 11.626 42.2011 11.1963 42.2011 10.6826C42.2011 10.1638 42.0968 9.72645 41.8883 9.37044C41.6849 9.01442 41.3721 8.74487 40.95 8.56177C40.5329 8.37359 40.0065 8.2795 39.3708 8.2795H37.1432V21.2029H33.8398ZM42.2774 14.0927L46.1605 21.2029H42.5139L38.7147 14.0927H42.2774Z" fill="#27272A"/>
<path d="M47.877 21.2029V9.48487H51.1269V21.2029H47.877ZM49.5096 7.97435C49.0264 7.97435 48.6119 7.81414 48.2661 7.49373C47.9253 7.16823 47.7549 6.77915 47.7549 6.32651C47.7549 5.87894 47.9253 5.49496 48.2661 5.17454C48.6119 4.84904 49.0264 4.68629 49.5096 4.68629C49.9928 4.68629 50.4047 4.84904 50.7455 5.17454C51.0913 5.49496 51.2642 5.87894 51.2642 6.32651C51.2642 6.77915 51.0913 7.16823 50.7455 7.49373C50.4047 7.81414 49.9928 7.97435 49.5096 7.97435Z" fill="#27272A"/>
<path d="M58.0482 21.3936C57.1582 21.3936 56.3521 21.1647 55.6299 20.707C54.9128 20.2442 54.3431 19.5652 53.921 18.6701C53.504 17.7698 53.2954 16.6662 53.2954 15.3591C53.2954 14.0164 53.5116 12.9001 53.9439 12.01C54.3762 11.1149 54.9509 10.4461 55.668 10.0036C56.3902 9.55607 57.1811 9.33229 58.0406 9.33229C58.6967 9.33229 59.2434 9.44418 59.6808 9.66796C60.1233 9.88666 60.4793 10.1613 60.7489 10.4919C61.0235 10.8174 61.232 11.1378 61.3744 11.4531H61.4736V5.57888H64.7159V21.2029H61.5117V19.3261H61.3744C61.2218 19.6516 61.0057 19.9746 60.726 20.295C60.4513 20.6103 60.0928 20.8723 59.6503 21.0808C59.2129 21.2893 58.6789 21.3936 58.0482 21.3936ZM59.0781 18.8074C59.602 18.8074 60.0445 18.665 60.4056 18.3802C60.7717 18.0903 61.0515 17.6859 61.2447 17.1672C61.4431 16.6484 61.5423 16.0406 61.5423 15.3439C61.5423 14.6471 61.4456 14.0419 61.2524 13.5282C61.0591 13.0145 60.7794 12.6178 60.4132 12.3381C60.047 12.0584 59.602 11.9185 59.0781 11.9185C58.5441 11.9185 58.094 12.0634 57.7278 12.3533C57.3616 12.6432 57.0844 13.045 56.8963 13.5587C56.7081 14.0724 56.614 14.6674 56.614 15.3439C56.614 16.0254 56.7081 16.6281 56.8963 17.1519C57.0895 17.6707 57.3667 18.0775 57.7278 18.3725C58.094 18.6624 58.5441 18.8074 59.0781 18.8074Z" fill="#27272A"/>
<path d="M72.6824 21.4317C71.4973 21.4317 70.4725 21.18 69.6079 20.6765C68.7484 20.1679 68.0847 19.4609 67.6168 18.5556C67.1489 17.6452 66.9149 16.5899 66.9149 15.3896C66.9149 14.1792 67.1489 13.1213 67.6168 12.216C68.0847 11.3056 68.7484 10.5987 69.6079 10.0952C70.4725 9.58659 71.4973 9.33229 72.6824 9.33229C73.8674 9.33229 74.8896 9.58659 75.7492 10.0952C76.6138 10.5987 77.28 11.3056 77.7479 12.216C78.2158 13.1213 78.4498 14.1792 78.4498 15.3896C78.4498 16.5899 78.2158 17.6452 77.7479 18.5556C77.28 19.4609 76.6138 20.1679 75.7492 20.6765C74.8896 21.18 73.8674 21.4317 72.6824 21.4317ZM72.6976 18.9142C73.2367 18.9142 73.6868 18.7616 74.0479 18.4564C74.409 18.1462 74.6811 17.7241 74.8642 17.1901C75.0524 16.656 75.1465 16.0483 75.1465 15.3667C75.1465 14.6852 75.0524 14.0775 74.8642 13.5434C74.6811 13.0094 74.409 12.5873 74.0479 12.277C73.6868 11.9668 73.2367 11.8117 72.6976 11.8117C72.1534 11.8117 71.6957 11.9668 71.3244 12.277C70.9582 12.5873 70.681 13.0094 70.4929 13.5434C70.3098 14.0775 70.2182 14.6852 70.2182 15.3667C70.2182 16.0483 70.3098 16.656 70.4929 17.1901C70.681 17.7241 70.9582 18.1462 71.3244 18.4564C71.6957 18.7616 72.1534 18.9142 72.6976 18.9142Z" fill="#27272A"/>
<path d="M80.563 21.2029V9.48487H83.7137V11.5294H83.8358C84.0494 10.8021 84.408 10.2528 84.9115 9.88157C85.415 9.50521 85.9948 9.31703 86.6509 9.31703C86.8136 9.31703 86.9891 9.32721 87.1772 9.34755C87.3654 9.36789 87.5307 9.39587 87.6731 9.43147V12.3152C87.5205 12.2694 87.3095 12.2287 87.0399 12.1931C86.7704 12.1575 86.5237 12.1397 86.2999 12.1397C85.8218 12.1397 85.3946 12.244 85.0183 12.4525C84.647 12.6559 84.352 12.9408 84.1333 13.3069C83.9197 13.6731 83.8129 14.0953 83.8129 14.5733V21.2029H80.563Z" fill="#27272A"/>
<path d="M89.3534 21.2029V9.48487H92.6033V21.2029H89.3534ZM90.986 7.97435C90.5028 7.97435 90.0883 7.81414 89.7425 7.49373C89.4017 7.16823 89.2313 6.77915 89.2313 6.32651C89.2313 5.87894 89.4017 5.49496 89.7425 5.17454C90.0883 4.84904 90.5028 4.68629 90.986 4.68629C91.4691 4.68629 91.8811 4.84904 92.2219 5.17454C92.5677 5.49496 92.7406 5.87894 92.7406 6.32651C92.7406 6.77915 92.5677 7.16823 92.2219 7.49373C91.8811 7.81414 91.4691 7.97435 90.986 7.97435Z" fill="#27272A"/>
<path d="M98.5481 21.4241C97.8005 21.4241 97.1342 21.2944 96.5493 21.035C95.9645 20.7705 95.5016 20.3815 95.1609 19.8678C94.8252 19.349 94.6574 18.7031 94.6574 17.9301C94.6574 17.2791 94.7769 16.7323 95.0159 16.2898C95.255 15.8474 95.5805 15.4914 95.9924 15.2218C96.4044 14.9522 96.8723 14.7488 97.3962 14.6115C97.9251 14.4742 98.4795 14.3775 99.0593 14.3216C99.7408 14.2504 100.29 14.1843 100.707 14.1232C101.124 14.0571 101.427 13.9605 101.615 13.8333C101.803 13.7062 101.897 13.518 101.897 13.2688V13.223C101.897 12.7399 101.745 12.366 101.439 12.1016C101.139 11.8371 100.712 11.7049 100.158 11.7049C99.5729 11.7049 99.1076 11.8346 98.7617 12.094C98.4159 12.3482 98.187 12.6687 98.0751 13.0552L95.0693 12.8111C95.2219 12.099 95.522 11.4836 95.9695 10.9649C96.4171 10.441 96.9944 10.0392 97.7013 9.75951C98.4133 9.4747 99.2373 9.33229 100.173 9.33229C100.824 9.33229 101.447 9.40858 102.042 9.56116C102.642 9.71374 103.174 9.95023 103.637 10.2706C104.104 10.5911 104.473 11.003 104.743 11.5065C105.012 12.0049 105.147 12.6025 105.147 13.2993V21.2029H102.065V19.5779H101.973C101.785 19.9441 101.534 20.267 101.218 20.5468C100.903 20.8214 100.524 21.0376 100.082 21.1952C99.639 21.3478 99.1279 21.4241 98.5481 21.4241ZM99.4788 19.1812C99.9569 19.1812 100.379 19.0871 100.745 18.8989C101.111 18.7057 101.399 18.4463 101.607 18.1208C101.816 17.7953 101.92 17.4265 101.92 17.0146V15.7711C101.818 15.8372 101.679 15.8982 101.5 15.9542C101.328 16.005 101.132 16.0533 100.913 16.0991C100.694 16.1398 100.476 16.178 100.257 16.2136C100.038 16.2441 99.8399 16.272 99.6619 16.2975C99.2805 16.3534 98.9474 16.4424 98.6626 16.5645C98.3777 16.6865 98.1565 16.8518 97.9988 17.0604C97.8412 17.2638 97.7623 17.5181 97.7623 17.8233C97.7623 18.2657 97.9225 18.6039 98.243 18.8379C98.5685 19.0668 98.9804 19.1812 99.4788 19.1812Z" fill="#27272A"/>
<defs>
<linearGradient id="paint0_linear_5_996" x1="18.3659" y1="4.90642" x2="18.3659" y2="12.6552" gradientUnits="userSpaceOnUse">
<stop stop-color="#25136D"/>
<stop offset="1" stop-color="#3D9BA2"/>
</linearGradient>
<linearGradient id="paint1_linear_5_996" x1="13.7222" y1="3.08161" x2="17.5965" y2="9.79228" gradientUnits="userSpaceOnUse">
<stop stop-color="#25136D"/>
<stop offset="1" stop-color="#3D9BA2"/>
</linearGradient>
<linearGradient id="paint2_linear_5_996" x1="8.78808" y1="3.82276" x2="15.4987" y2="7.69712" gradientUnits="userSpaceOnUse">
<stop stop-color="#25136D"/>
<stop offset="1" stop-color="#3D9BA2"/>
</linearGradient>
<linearGradient id="paint3_linear_5_996" x1="4.88477" y1="6.93196" x2="12.6335" y2="6.93196" gradientUnits="userSpaceOnUse">
<stop stop-color="#25136D"/>
<stop offset="1" stop-color="#3D9BA2"/>
</linearGradient>
<linearGradient id="paint4_linear_5_996" x1="3.05938" y1="11.5757" x2="9.77" y2="7.70131" gradientUnits="userSpaceOnUse">
<stop stop-color="#25136D"/>
<stop offset="1" stop-color="#3D9BA2"/>
</linearGradient>
<linearGradient id="paint5_linear_5_996" x1="3.80019" y1="16.5102" x2="7.67459" y2="9.79952" gradientUnits="userSpaceOnUse">
<stop stop-color="#25136D"/>
<stop offset="1" stop-color="#3D9BA2"/>
</linearGradient>
<linearGradient id="paint6_linear_5_996" x1="6.90877" y1="20.4129" x2="6.90877" y2="12.6642" gradientUnits="userSpaceOnUse">
<stop stop-color="#25136D"/>
<stop offset="1" stop-color="#3D9BA2"/>
</linearGradient>
<linearGradient id="paint7_linear_5_996" x1="11.5515" y1="22.2385" x2="7.67712" y2="15.5278" gradientUnits="userSpaceOnUse">
<stop stop-color="#25136D"/>
<stop offset="1" stop-color="#3D9BA2"/>
</linearGradient>
<linearGradient id="paint8_linear_5_996" x1="16.4868" y1="21.4977" x2="9.77617" y2="17.6232" gradientUnits="userSpaceOnUse">
<stop stop-color="#25136D"/>
<stop offset="1" stop-color="#3D9BA2"/>
</linearGradient>
<linearGradient id="paint9_linear_5_996" x1="20.3894" y1="18.3893" x2="12.6406" y2="18.3893" gradientUnits="userSpaceOnUse">
<stop stop-color="#25136D"/>
<stop offset="1" stop-color="#3D9BA2"/>
</linearGradient>
<linearGradient id="paint10_linear_5_996" x1="22.2155" y1="13.7458" x2="15.5049" y2="17.6202" gradientUnits="userSpaceOnUse">
<stop stop-color="#25136D"/>
<stop offset="1" stop-color="#3D9BA2"/>
</linearGradient>
<linearGradient id="paint11_linear_5_996" x1="21.4735" y1="8.81167" x2="17.5991" y2="15.5223" gradientUnits="userSpaceOnUse">
<stop stop-color="#25136D"/>
<stop offset="1" stop-color="#3D9BA2"/>
</linearGradient>
</defs>
</svg>
