<svg width="126" height="23" viewBox="0 0 126 23" fill="none" xmlns="http://www.w3.org/2000/svg">
<path d="M10.0008 0.86972H23.5876L13.5986 15.6333H0.0117188L10.0008 0.86972Z" fill="#007AFF"/>
<path d="M10.5956 17.0015L6.72656 22.7198H20.9579L30.947 7.95622H20.4433L14.3233 17.0015H10.5956Z" fill="#312ECB"/>
<path d="M40.623 4.72169C40.7348 5.54091 40.772 6.08085 40.772 7.47724V17.4568C40.772 18.7042 40.7348 19.4862 40.623 20.2123H44.7191C44.6074 19.4304 44.5702 18.7415 44.5702 17.4568V7.47724C44.5702 6.11809 44.6074 5.48506 44.7191 4.72169H40.623Z" fill="#1C1B66"/>
<path d="M50.7097 20.2123C50.5979 19.2442 50.5607 18.4622 50.5607 17.4009V13.64C51.3613 12.3367 52.2922 11.685 53.3349 11.685C53.8934 11.685 54.3217 11.8712 54.5637 12.2064C54.7871 12.5229 54.8616 12.8394 54.8616 13.5841V17.4009C54.8616 18.5367 54.8244 19.3187 54.7127 20.2123H58.5853C58.4922 19.4304 58.4364 18.4994 58.4364 17.4196V12.7463C58.4364 11.2754 58.1199 10.3631 57.3751 9.61838C56.6862 8.92949 55.6622 8.57574 54.3775 8.57574C52.8508 8.57574 51.7151 9.0412 50.5421 10.1583C50.5421 10.028 50.5607 9.74871 50.5607 9.637V8.85502H46.8556C46.9673 9.59976 47.0046 10.3817 47.0046 11.6664V17.4009C47.0046 18.5553 46.9673 19.3373 46.8556 20.2123H50.7097Z" fill="#1C1B66"/>
<path d="M71.495 12.2995C70.8806 9.82318 68.8884 8.40817 66.0211 8.40817C62.3905 8.40817 60.0445 10.7913 60.0445 14.5151C60.0445 16.3397 60.6403 17.9781 61.7202 19.0394C62.7442 20.082 64.271 20.6406 66.0583 20.6406C68.2181 20.6406 69.9124 19.8772 70.8433 18.4994C71.1971 17.9595 71.4205 17.4568 71.6253 16.6562L68.1995 16.1163C68.125 16.5445 68.0319 16.7307 67.8643 16.9727C67.492 17.494 66.8217 17.7919 66.0956 17.7919C64.6061 17.7919 63.6565 16.4886 63.6565 14.4778C63.6565 12.4298 64.5502 11.2382 66.0583 11.2382C66.7286 11.2382 67.2499 11.4616 67.6223 11.8898C67.8643 12.1691 67.9761 12.4298 68.1436 12.9883L71.495 12.2995Z" fill="#1C1B66"/>
<path d="M80.5404 12.858C79.1999 12.8952 78.6413 12.9139 77.9152 12.9883C76.2395 13.1373 74.9921 13.5283 74.0425 14.1985C73.1488 14.813 72.6834 15.7439 72.6834 16.9169C72.6834 17.9409 73.0371 18.8346 73.7074 19.449C74.4521 20.1379 75.5134 20.473 76.9284 20.473C78.4551 20.473 79.4977 20.1565 80.5404 19.3559V20.2123H84.1524C84.0593 19.3745 84.0221 18.7042 84.0221 17.5685V12.5415C84.0221 10.8658 83.5007 9.8418 82.3092 9.19015C81.583 8.79916 80.2425 8.5385 78.8647 8.5385C77.0587 8.5385 75.6809 8.89225 74.6755 9.59976C73.8936 10.1583 73.484 10.7541 73.1116 11.8526L76.6677 12.4298C76.947 11.5175 77.58 11.1265 78.7716 11.1265C80.0005 11.1265 80.5404 11.5361 80.5404 12.4298V12.858ZM80.5404 15.7625C80.5404 16.3211 80.2983 16.8238 79.8701 17.1961C79.3674 17.6244 78.5296 17.9036 77.7662 17.9036C76.7981 17.9036 76.2395 17.5127 76.2395 16.8424C76.2395 16.3024 76.6491 15.837 77.3194 15.6136C78.0827 15.3715 78.8833 15.2784 80.5404 15.2412V15.7625Z" fill="#1C1B66"/>
<path d="M89.9832 20.2123C89.8715 19.2442 89.8343 18.4622 89.8343 17.4009V13.64C90.6349 12.3367 91.5658 11.685 92.6084 11.685C93.167 11.685 93.5952 11.8712 93.8372 12.2064C94.0607 12.5229 94.1351 12.8394 94.1351 13.5841V17.4009C94.1351 18.5367 94.0979 19.3187 93.9862 20.2123H97.8589C97.7658 19.4304 97.7099 18.4994 97.7099 17.4196V12.7463C97.7099 11.2754 97.3934 10.3631 96.6487 9.61838C95.9598 8.92949 94.9357 8.57574 93.6511 8.57574C92.1243 8.57574 90.9886 9.0412 89.8156 10.1583C89.8156 10.028 89.8343 9.74871 89.8343 9.637V8.85502H86.1292C86.2409 9.59976 86.2781 10.3817 86.2781 11.6664V17.4009C86.2781 18.5553 86.2409 19.3373 86.1292 20.2123H89.9832Z" fill="#1C1B66"/>
<path d="M101.273 8.85502H100.603C99.9511 8.85502 99.4857 8.81778 98.9457 8.74331V11.8526C99.4857 11.7781 99.9697 11.7409 100.566 11.7409H101.273V17.4382C101.273 18.7042 101.534 19.3373 102.241 19.8772C102.837 20.3241 103.712 20.5289 104.978 20.5289C105.984 20.5289 106.71 20.4172 107.548 20.1565L107.268 17.3265C106.803 17.5685 106.449 17.6616 105.965 17.6616C105.611 17.6616 105.313 17.5871 105.108 17.4568C104.866 17.2892 104.773 17.0286 104.773 16.5072V11.7409H105.555C106.226 11.7409 106.71 11.7781 107.268 11.8526V8.76192C106.691 8.8364 106.263 8.85502 105.444 8.85502H104.773V8.46403C104.773 7.57034 104.829 6.67664 104.922 5.91328H101.124C101.236 6.78836 101.273 7.5331 101.273 8.46403V8.85502Z" fill="#1C1B66"/>
<path d="M114.353 20.6406C118.058 20.6406 120.516 18.1829 120.516 14.4778C120.516 10.7913 118.132 8.42679 114.371 8.42679C110.611 8.42679 108.227 10.7913 108.227 14.5151C108.227 18.2574 110.611 20.6406 114.353 20.6406ZM114.39 11.2196C115.973 11.2196 116.922 12.4484 116.922 14.5337C116.922 16.6003 115.991 17.8105 114.371 17.8105C112.752 17.8105 111.784 16.5631 111.784 14.4964C111.784 12.4484 112.752 11.2196 114.39 11.2196Z" fill="#1C1B66"/>
<path d="M121.984 16.4514V20.2123H125.745V16.4514H121.984Z" fill="#1C1B66"/>
</svg>
